Coordinates
version=1
nRows=31
nColumns=38
inDegrees=no

Units are S.I. units (second, meters, Newtons, ...)
If the header above contains a line with 'inDegrees', this indicates whether rotational values are in degrees (yes) or radians (no).

endheader
time	pelvis_tilt	pelvis_list	pelvis_rotation	pelvis_tx	pelvis_ty	pelvis_tz	hip_flexion_r	hip_adduction_r	hip_rotation_r	knee_angle_r	ankle_angle_r	subtalar_angle_r	mtp_angle_r	hip_flexion_l	hip_adduction_l	hip_rotation_l	knee_angle_l	ankle_angle_l	subtalar_angle_l	mtp_angle_l	lumbar_extension	lumbar_bending	lumbar_rotation	arm_flex_r	arm_add_r	arm_rot_r	elbow_flex_r	pro_sup_r	wrist_flex_r	wrist_dev_r	arm_flex_l	arm_add_l	arm_rot_l	elbow_flex_l	pro_sup_l	wrist_flex_l	wrist_dev_l
1.09	2.53383	1.40522	-0.911436	0.829144	0.675867	0.961363	0.378917	0.0376624	-0.321876	0.126169	0.1441	0	0	-0.4254	-0.0446052	-0.268109	0.0819562	0.239394	0	0	-0.415673	0.189446	-0.045148	0.414028	-0.397204	0.031548	1.17584	0.976276	0	0	0.364701	-0.301962	-0.0375361	1.13834	1.04585	0	0
1.1	2.57435	1.4088	-0.946719	0.830147	0.68938	0.959179	0.381414	0.0303973	-0.322803	0.13231	0.147535	0	0	-0.43792	-0.0424012	-0.265901	0.0899043	0.24406	0	0	-0.414836	0.184739	-0.0493841	0.411372	-0.397069	0.0312474	1.17615	0.976785	0	0	0.361556	-0.300914	-0.0392052	1.13756	1.04535	0	0
1.11	2.61616	1.41062	-0.982736	0.831028	0.703223	0.957007	0.383365	0.0226182	-0.326075	0.147877	0.150854	0	0	-0.450366	-0.0422786	-0.264563	0.101738	0.250059	0	0	-0.415079	0.181542	-0.0535771	0.408113	-0.396893	0.0297245	1.17762	0.977247	0	0	0.357699	-0.299589	-0.0407674	1.13742	1.04473	0	0
1.12	2.65721	1.41053	-1.01648	0.83177	0.717428	0.954838	0.38338	0.014635	-0.33121	0.169554	0.15454	0	0	-0.462623	-0.044863	-0.262371	0.11744	0.256816	0	0	-0.416096	0.180235	-0.0585855	0.404359	-0.396523	0.027087	1.17975	0.978307	0	0	0.353524	-0.298193	-0.0417485	1.13691	1.04376	0	0
1.13	2.69697	1.4091	-1.0471	0.832399	0.731985	0.952642	0.380447	0.00673191	-0.336383	0.194084	0.159047	0	0	-0.473903	-0.0500643	-0.25957	0.137514	0.263859	0	0	-0.41722	0.180406	-0.0651394	0.400301	-0.395892	0.0243983	1.182	0.98038	0	0	0.348937	-0.29695	-0.0425194	1.13576	1.04209	0	0
1.14	2.73444	1.40676	-1.07363	0.832982	0.746928	0.950381	0.374121	-0.00060957	-0.340953	0.220071	0.164528	0	0	-0.483554	-0.0580406	-0.256971	0.162448	0.271217	0	0	-0.417694	0.18171	-0.0735751	0.396293	-0.395735	0.0236274	1.18421	0.982366	0	0	0.343644	-0.296187	-0.0433171	1.13402	1.04045	0	0
1.15	2.77356	1.40398	-1.10013	0.833509	0.762248	0.948003	0.36397	-0.00777794	-0.345458	0.244946	0.16862	0	0	-0.491206	-0.0680716	-0.254588	0.192793	0.278587	0	0	-0.417252	0.183151	-0.0838684	0.391651	-0.395896	0.0242537	1.187	0.982966	0	0	0.337834	-0.295704	-0.044303	1.13157	1.03903	0	0
1.16	2.81656	1.40061	-1.12984	0.834213	0.777868	0.945517	0.349898	-0.0142287	-0.352659	0.263	0.162712	0	0	-0.497305	-0.0796902	-0.253103	0.228122	0.284765	0	0	-0.416706	0.18358	-0.0942198	0.385721	-0.396655	0.0252658	1.19012	0.982662	0	0	0.332343	-0.295461	-0.0448052	1.12872	1.03782	0	0
1.17	2.85469	1.39563	-1.15723	0.835573	0.79328	0.943219	0.334754	-0.017863	-0.364477	0.270779	0.127205	0	0	-0.501654	-0.0936635	-0.255095	0.26929	0.288701	0	0	-0.4189	0.183431	-0.100509	0.379843	-0.396606	0.0243941	1.19338	0.981789	0	0	0.328476	-0.295459	-0.0448807	1.12643	1.03682	0	0
1.18	2.86977	1.38895	-1.16958	0.837948	0.80772	0.941618	0.325146	-0.0162721	-0.37359	0.277555	0.0587821	0	0	-0.502262	-0.110073	-0.262666	0.316802	0.286694	0	0	-0.426471	0.18468	-0.0970236	0.377647	-0.395836	0.0218056	1.19607	0.980617	0	0	0.327307	-0.29436	-0.0453889	1.1244	1.03525	0	0
1.19	2.84636	1.38169	-1.15421	0.841045	0.82084	0.941189	0.327552	-0.00907571	-0.373634	0.305163	-0.000105137	0	0	-0.495746	-0.129298	-0.275323	0.372232	0.275087	0	0	-0.439052	0.190155	-0.0816538	0.382018	-0.396366	0.0212575	1.19693	0.978707	0	0	0.327844	-0.290543	-0.0473661	1.12323	1.03306	0	0
1.2	2.80019	1.37718	-1.12398	0.8442	0.833325	0.941535	0.343393	-0.00120331	-0.367131	0.35786	-0.0247827	0	0	-0.479573	-0.148281	-0.288386	0.435804	0.251424	0	0	-0.450885	0.196952	-0.0604601	0.391881	-0.399355	0.0276127	1.1945	0.975432	0	0	0.326549	-0.285045	-0.0521039	1.12354	1.02995	0	0
1.21	2.76093	1.37662	-1.10288	0.846911	0.845931	0.942038	0.364909	0.00265058	-0.356079	0.41981	-0.0267223	0	0	-0.456029	-0.162635	-0.294222	0.504483	0.216252	0	0	-0.458516	0.200352	-0.0415318	0.404503	-0.404672	0.043584	1.18803	0.971138	0	0	0.322622	-0.280282	-0.0590523	1.12432	1.02888	0	0
1.22	2.74316	1.37506	-1.09829	0.849056	0.858802	0.942767	0.37681	0.00375147	-0.34649	0.470038	-0.0275614	0	0	-0.431891	-0.174413	-0.288313	0.574305	0.174465	0	0	-0.466247	0.201524	-0.029638	0.417062	-0.409598	0.0622303	1.17954	0.966533	0	0	0.319437	-0.278129	-0.0644698	1.12348	1.0298	0	0
1.23	2.73619	1.37316	-1.09963	0.851114	0.871694	0.943477	0.378906	0.00437037	-0.341798	0.503146	-0.0351375	0	0	-0.405414	-0.185801	-0.274336	0.646143	0.131089	0	0	-0.473191	0.201505	-0.02228	0.427419	-0.413118	0.0786106	1.17158	0.957823	0	0	0.318407	-0.278654	-0.0660445	1.12053	1.02843	0	0
1.24	2.72887	1.37087	-1.09644	0.853248	0.884226	0.944235	0.373101	0.00689846	-0.34219	0.519838	-0.0476749	0	0	-0.375403	-0.198422	-0.254148	0.719775	0.0880452	0	0	-0.479825	0.202235	-0.0164846	0.434561	-0.414962	0.0881641	1.16741	0.949548	0	0	0.319972	-0.280573	-0.0633871	1.11649	1.02273	0	0
1.25	2.71944	1.3696	-1.08822	0.855502	0.896368	0.94498	0.364108	0.0108963	-0.345147	0.526418	-0.0616054	0	0	-0.341633	-0.210123	-0.227941	0.792145	0.0475236	0	0	-0.484888	0.203106	-0.0112535	0.438314	-0.415222	0.0906835	1.16754	0.946979	0	0	0.322518	-0.282561	-0.0589496	1.11322	1.01491	0	0
1.26	2.71691	1.36971	-1.08482	0.857766	0.908281	0.945811	0.353492	0.0143751	-0.348042	0.527675	-0.0741678	0	0	-0.307077	-0.217138	-0.197007	0.857908	0.0114139	0	0	-0.488777	0.202139	-0.00698408	0.43898	-0.414231	0.0880651	1.17031	0.949558	0	0	0.324945	-0.28399	-0.0550168	1.11172	1.00798	0	0
1.27	2.72905	1.37078	-1.09581	0.859959	0.920084	0.946923	0.342135	0.0162901	-0.346103	0.528703	-0.0792876	0	0	-0.275476	-0.217141	-0.164882	0.913969	-0.0149398	0	0	-0.49308	0.197557	-0.0033575	0.437597	-0.412701	0.0826736	1.17382	0.952316	0	0	0.326867	-0.284796	-0.0530344	1.11242	1.00224	0	0
1.28	2.7544	1.37109	-1.12183	0.862226	0.931755	0.948593	0.330593	0.0186113	-0.334042	0.533549	-0.0746971	0	0	-0.249283	-0.212167	-0.136885	0.960764	-0.0218817	0	0	-0.500115	0.189476	0.00112036	0.435873	-0.411342	0.0774712	1.17669	0.951986	0	0	0.328701	-0.285257	-0.0536026	1.11538	0.998114	0	0
1.29	2.78854	1.36913	-1.15931	0.864567	0.943232	0.95103	0.318455	0.0222832	-0.312663	0.542934	-0.0650808	0	0	-0.229038	-0.204642	-0.115341	0.999686	-0.00852791	0	0	-0.511151	0.179116	0.00709747	0.435598	-0.410521	0.0741586	1.17822	0.950614	0	0	0.331052	-0.285897	-0.0550493	1.11997	0.994694	0	0
1.3	2.82918	1.36591	-1.20642	0.866902	0.95453	0.954083	0.305986	0.0256982	-0.285642	0.55432	-0.055494	0	0	-0.213215	-0.194318	-0.0999875	1.03053	0.0182122	0	0	-0.524455	0.166543	0.0144193	0.437451	-0.410539	0.0740163	1.17823	0.948882	0	0	0.333435	-0.286964	-0.0567234	1.12505	0.992897	0	0
1.31	2.87204	1.36214	-1.25773	0.869163	0.965783	0.957539	0.291604	0.0277099	-0.259476	0.56311	-0.0468301	0	0	-0.200251	-0.182229	-0.0894473	1.05253	0.0466113	0	0	-0.537846	0.15281	0.0225042	0.440302	-0.41108	0.0757114	1.17689	0.947907	0	0	0.335881	-0.288115	-0.0574495	1.12866	0.994051	0	0
1.32	2.9107	1.35721	-1.30425	0.871248	0.977121	0.961295	0.272547	0.0284312	-0.240656	0.565096	-0.0391281	0	0	-0.189232	-0.170921	-0.0812781	1.0666	0.069117	0	0	-0.550703	0.140422	0.0300429	0.442685	-0.411274	0.0771071	1.17459	0.94784	0	0	0.33841	-0.288609	-0.0572074	1.13024	0.995968	0	0
1.33	2.94265	1.3502	-1.34085	0.872977	0.988527	0.965331	0.247538	0.027906	-0.231731	0.559918	-0.0321659	0	0	-0.179754	-0.161749	-0.0723451	1.07432	0.0827331	0	0	-0.563836	0.131388	0.0353992	0.444016	-0.410744	0.0766098	1.17222	0.948288	0	0	0.340979	-0.28824	-0.0574397	1.12969	1.00071	0	0
1.34	2.96742	1.34482	-1.36695	0.874402	0.999993	0.96916	0.223023	0.0257588	-0.230694	0.552701	-0.024507	0	0	-0.166633	-0.154346	-0.0621046	1.07898	0.0904722	0	0	-0.573304	0.125052	0.0382121	0.443416	-0.409658	0.0739585	1.17004	0.950779	0	0	0.3429	-0.28742	-0.0577202	1.12762	1.00387	0	0
1.35	2.98622	1.34105	-1.38488	0.875638	1.01148	0.972743	0.199479	0.0233897	-0.234222	0.544141	-0.0162485	0	0	-0.150298	-0.148915	-0.052314	1.081	0.0944589	0	0	-0.579697	0.120616	0.0392606	0.44104	-0.407647	0.0690911	1.1686	0.954902	0	0	0.343822	-0.286424	-0.057807	1.12571	1.00467	0	0
1.36	2.99943	1.33869	-1.39713	0.876787	1.02296	0.976099	0.177006	0.0220292	-0.238785	0.534069	-0.00832459	0	0	-0.13196	-0.145715	-0.0461658	1.07999	0.0966524	0	0	-0.584069	0.117246	0.0402468	0.437675	-0.405624	0.0637483	1.16864	0.957965	0	0	0.343526	-0.285288	-0.0590155	1.12481	1.00686	0	0
1.37	3.01041	1.33707	-1.40837	0.877963	1.03432	0.979318	0.155348	0.0214765	-0.242265	0.523087	-0.00127912	0	0	-0.113343	-0.143331	-0.0435767	1.07535	0.099536	0	0	-0.587788	0.113602	0.0418709	0.434447	-0.403549	0.0584097	1.16952	0.961412	0	0	0.342502	-0.284565	-0.0609436	1.12547	1.01027	0	0
1.38	3.02118	1.33591	-1.42154	0.879205	1.04554	0.982415	0.134362	0.021415	-0.243262	0.511381	0.00478916	0	0	-0.0951698	-0.140885	-0.0452677	1.06687	0.103025	0	0	-0.591275	0.108784	0.0444673	0.432329	-0.401993	0.0548825	1.17025	0.963672	0	0	0.341174	-0.284628	-0.062546	1.12724	1.01154	0	0
1.39	3.03254	1.33501	-1.43734	0.880487	1.05662	0.985375	0.114052	0.0213811	-0.241978	0.499458	0.0101595	0	0	-0.0777514	-0.138229	-0.0507946	1.05449	0.107468	0	0	-0.594601	0.102683	0.0476788	0.43168	-0.400768	0.053515	1.16998	0.965904	0	0	0.339668	-0.285297	-0.0644329	1.12957	1.01212	0	0
